<svg width="83" height="30" viewBox="0 0 83 30" fill="none" xmlns="http://www.w3.org/2000/svg">
<path d="M26.134 25V13.3636H33.8385V15.3921H28.5942V18.1648H33.3271V20.1932H28.5942V25H26.134Z" fill="#044123"/>
<path d="M35.3073 25V16.2727H37.6539V17.7955H37.7448C37.9039 17.2538 38.1709 16.8447 38.5459 16.5682C38.9209 16.2879 39.3527 16.1477 39.8414 16.1477C39.9626 16.1477 40.0932 16.1553 40.2334 16.1705C40.3736 16.1856 40.4967 16.2064 40.6027 16.233V18.3807C40.4891 18.3466 40.3319 18.3163 40.1311 18.2898C39.9304 18.2633 39.7467 18.25 39.58 18.25C39.2239 18.25 38.9057 18.3277 38.6254 18.483C38.3489 18.6345 38.1292 18.8466 37.9664 19.1193C37.8073 19.3921 37.7277 19.7064 37.7277 20.0625V25H35.3073Z" fill="#044123"/>
<path d="M45.4252 25.1705C44.5274 25.1705 43.7547 24.9886 43.107 24.625C42.463 24.2576 41.9668 23.7386 41.6183 23.0682C41.2699 22.3939 41.0956 21.5966 41.0956 20.6761C41.0956 19.7784 41.2699 18.9905 41.6183 18.3125C41.9668 17.6345 42.4574 17.1061 43.0899 16.7273C43.7263 16.3485 44.4725 16.1591 45.3286 16.1591C45.9043 16.1591 46.4403 16.2519 46.9365 16.4375C47.4365 16.6193 47.8721 16.8939 48.2433 17.2614C48.6183 17.6288 48.91 18.0909 49.1183 18.6477C49.3267 19.2008 49.4308 19.8485 49.4308 20.5909V21.2557H42.0615V19.7557H47.1524C47.1524 19.4072 47.0767 19.0985 46.9252 18.8296C46.7736 18.5606 46.5634 18.3504 46.2945 18.1989C46.0293 18.0436 45.7206 17.9659 45.3683 17.9659C45.0009 17.9659 44.6752 18.0511 44.3911 18.2216C44.1108 18.3883 43.8911 18.6136 43.732 18.8977C43.5729 19.178 43.4914 19.4905 43.4877 19.8352V21.2614C43.4877 21.6932 43.5672 22.0663 43.7263 22.3807C43.8892 22.6951 44.1183 22.9375 44.4138 23.108C44.7092 23.2784 45.0596 23.3636 45.4649 23.3636C45.7339 23.3636 45.9801 23.3258 46.2036 23.25C46.4271 23.1743 46.6183 23.0606 46.7774 22.9091C46.9365 22.7576 47.0577 22.572 47.1411 22.3523L49.3797 22.5C49.2661 23.0379 49.0331 23.5076 48.6808 23.9091C48.3324 24.3068 47.8816 24.6174 47.3286 24.8409C46.7793 25.0606 46.1449 25.1705 45.4252 25.1705Z" fill="#044123"/>
<path d="M58.2718 18.7614L56.0558 18.8977C56.018 18.7083 55.9365 18.5379 55.8115 18.3864C55.6865 18.2311 55.5217 18.108 55.3172 18.0171C55.1164 17.9224 54.8759 17.875 54.5956 17.875C54.2206 17.875 53.9043 17.9546 53.6468 18.1136C53.3892 18.2689 53.2604 18.4773 53.2604 18.7386C53.2604 18.947 53.3437 19.1231 53.5104 19.2671C53.6771 19.411 53.963 19.5265 54.3683 19.6136L55.9479 19.9318C56.7964 20.1061 57.4289 20.3864 57.8456 20.7727C58.2623 21.1591 58.4706 21.6667 58.4706 22.2955C58.4706 22.8674 58.3021 23.3693 57.9649 23.8011C57.6316 24.233 57.1733 24.5701 56.5899 24.8125C56.0104 25.0511 55.3418 25.1705 54.5843 25.1705C53.4289 25.1705 52.5085 24.9299 51.8229 24.4489C51.1411 23.964 50.7414 23.3049 50.624 22.4716L53.0047 22.3466C53.0767 22.6989 53.2509 22.9678 53.5274 23.1534C53.8039 23.3352 54.1581 23.4261 54.5899 23.4261C55.0142 23.4261 55.3551 23.3447 55.6127 23.1818C55.874 23.0152 56.0066 22.8011 56.0104 22.5398C56.0066 22.3201 55.9138 22.1402 55.732 22C55.5502 21.8561 55.2699 21.7462 54.8911 21.6705L53.3797 21.3693C52.5274 21.1989 51.893 20.9034 51.4763 20.483C51.0634 20.0625 50.857 19.5265 50.857 18.875C50.857 18.3144 51.0085 17.8314 51.3115 17.4261C51.6183 17.0208 52.0483 16.7083 52.6013 16.4886C53.1581 16.2689 53.8096 16.1591 54.5558 16.1591C55.6581 16.1591 56.5255 16.3921 57.1581 16.858C57.7945 17.3239 58.1657 17.9583 58.2718 18.7614Z" fill="#044123"/>
<path d="M62.4152 19.9546V25H59.9948V13.3636H62.347V17.8125H62.4493C62.6463 17.2974 62.9645 16.8939 63.4039 16.6023C63.8432 16.3068 64.3944 16.1591 65.0573 16.1591C65.6633 16.1591 66.1917 16.2917 66.6425 16.5568C67.097 16.8182 67.4493 17.1951 67.6993 17.6875C67.9531 18.1761 68.0781 18.7614 68.0743 19.4432V25H65.6539V19.875C65.6576 19.3371 65.5213 18.9186 65.2448 18.6193C64.972 18.3201 64.5895 18.1705 64.097 18.1705C63.7675 18.1705 63.4758 18.2405 63.222 18.3807C62.972 18.5208 62.7751 18.7254 62.6311 18.9943C62.491 19.2595 62.419 19.5796 62.4152 19.9546Z" fill="#044123"/>
<path d="M72.3996 13.3636V25H69.9791V13.3636H72.3996Z" fill="#044123"/>
<path d="M75.8328 28.2727C75.526 28.2727 75.2381 28.2481 74.9692 28.1989C74.704 28.1534 74.4843 28.0947 74.3101 28.0227L74.8556 26.2159C75.1397 26.303 75.3953 26.3504 75.6226 26.358C75.8537 26.3655 76.0525 26.3125 76.2192 26.1989C76.3896 26.0852 76.5279 25.8921 76.634 25.6193L76.776 25.25L73.6453 16.2727H76.1908L77.9976 22.6818H78.0885L79.9124 16.2727H82.4749L79.0828 25.9432C78.92 26.4129 78.6984 26.822 78.4181 27.1705C78.1415 27.5227 77.7912 27.7936 77.3669 27.983C76.9427 28.1761 76.4313 28.2727 75.8328 28.2727Z" fill="#044123"/>
<path d="M20.5408 10.6509H19.7939V6.98298C19.7945 6.37469 19.6404 5.77875 19.3496 5.26515C19.059 4.75153 18.6435 4.3415 18.1522 4.08298V3.03389C18.343 2.97653 18.4762 2.78345 18.4778 2.56202V0.90802C18.4778 0.775432 18.4308 0.648197 18.3472 0.554449C18.2635 0.4607 18.1502 0.40802 18.0317 0.40802H15.1953C14.9487 0.40802 14.7491 0.631906 14.7491 0.90802V2.56202C14.7505 2.78323 14.8834 2.97608 15.0738 3.03389V4.08504C14.5892 4.3404 14.1785 4.74332 13.8885 5.24778C13.5985 5.75224 13.441 6.33795 13.4338 6.93795C13.2726 6.9105 13.1095 6.90068 12.9466 6.90893C13.3368 6.04488 13.4579 5.05916 13.2902 4.10893C13.2703 3.97389 13.2017 3.8538 13.1006 3.77701C12.9994 3.7 12.8747 3.673 12.7552 3.70201C12.6359 3.73103 12.5323 3.81384 12.4688 3.93081C12.4053 4.04777 12.3873 4.18884 12.4192 4.32099C12.5526 5.19356 12.3907 6.09041 11.9651 6.83596C11.5538 6.14241 10.9039 5.67144 10.1708 5.53596C9.65053 5.44645 9.11933 5.57926 8.68237 5.90805C8.08366 2.84714 7.08521 0.408054 5.60574 0.408054C3.39913 0.408054 2.25964 5.82103 1.92863 10.6509L1.15147 10.6507C0.905094 10.6507 0.705322 10.8746 0.705322 11.1507V29.0918C0.705322 29.2244 0.752327 29.3517 0.835979 29.4454C0.919632 29.5392 1.03316 29.5918 1.15147 29.5918H20.5627C20.6124 29.5889 20.6616 29.5771 20.7081 29.5568C20.7557 29.5345 20.7997 29.5034 20.8383 29.4648L20.8552 29.4467C20.8971 29.4001 20.9301 29.345 20.9524 29.2838C20.9729 29.2296 20.9843 29.1717 20.9865 29.1128V11.1505C20.9865 10.8749 20.787 10.6515 20.5408 10.6509ZM15.6414 1.40801H17.5857V2.06201H15.6414V1.40801ZM15.5021 4.96607L15.6985 4.86607C15.861 4.7866 15.966 4.60669 15.966 4.40803V3.06203H17.2598V4.41089C17.26 4.60977 17.365 4.78946 17.5275 4.86892L17.7247 4.96892C18.0748 5.14035 18.3726 5.42249 18.5816 5.78075C18.7907 6.13901 18.9018 6.55801 18.9016 6.9859V10.654H15.2273C15.402 10.0497 15.4297 9.40418 15.3076 8.78384C15.1747 8.16195 14.8198 7.62847 14.3261 7.30795V6.98295C14.3259 6.55505 14.437 6.13632 14.6457 5.77804C14.8547 5.41978 15.1522 5.13749 15.5021 4.96607ZM10.0428 6.52412C10.3751 6.58752 10.6848 6.75381 10.9371 7.00425C11.1893 7.2547 11.3741 7.57905 11.4705 7.94111C11.4705 7.95317 11.4821 7.96008 11.4856 7.97214C11.5008 8.01656 11.5219 8.05852 11.5482 8.09602C11.5603 8.11768 11.5737 8.13844 11.5882 8.15808C11.5882 8.16299 11.5944 8.17013 11.5998 8.17504C11.6424 8.21901 11.6926 8.25294 11.7472 8.27504H11.7695C11.8109 8.29067 11.8541 8.29937 11.8979 8.30093C11.9077 8.30093 11.9176 8.29401 11.9282 8.29401C11.9543 8.29044 11.98 8.28442 12.0051 8.27593C12.0429 8.26567 12.0796 8.24937 12.1138 8.22794C12.1264 8.21991 12.1415 8.21991 12.1531 8.21098C12.5849 7.87281 13.1392 7.79982 13.6289 8.01701C14.0251 8.17013 14.3254 8.53732 14.4266 8.99312C14.5398 9.54848 14.4836 10.1306 14.2669 10.646H9.28362C9.20155 9.43912 9.06851 8.20004 8.88029 7.01301C9.01692 6.82193 9.19697 6.67573 9.40174 6.58979C9.60629 6.50363 9.82774 6.48104 10.0428 6.52412ZM5.60727 1.40807C6.65651 1.40807 7.98796 4.93018 8.38771 10.6509L2.82592 10.6507C3.22566 4.92956 4.55702 1.40807 5.60727 1.40807ZM13.6665 28.5921H1.59757V11.6509H13.6665V28.5921ZM14.5588 11.6509H16.8787V25.1429L14.5588 27.851V11.6509ZM15.1603 28.5921L17.3277 26.0662L19.4933 28.5921H15.1603ZM20.0945 27.8501L17.7746 25.1432V11.6512H20.0945V27.8501ZM6.56279 8.82041L5.2833 10.2532C5.10822 10.4427 4.82998 10.44 4.65788 10.2472C4.48577 10.0543 4.4832 9.7425 4.6523 9.54627L5.93001 8.11324C6.10508 7.92373 6.38352 7.92641 6.55563 8.11949C6.72771 8.31235 6.73011 8.62418 6.56101 8.8204L6.56279 8.82041ZM4.77204 7.54429C4.59178 7.54385 4.42966 7.42197 4.36075 7.23559C4.29183 7.04899 4.32987 6.83426 4.45695 6.6914L5.73466 5.25837C5.90953 5.06886 6.18817 5.07154 6.36028 5.2644C6.53238 5.45725 6.53475 5.76908 6.36565 5.96531L5.08794 7.40034C5.0037 7.49342 4.89015 7.54519 4.77204 7.54429Z" fill="#044123"/>
</svg>
